# xmcd
#
# Track frame offsets:
#	150
#	29590
#	61062
#	97429
#	126414
#	156748
#	180518
#	210687
#	239860
#	269247
#	299057
#
# Disc length: 4378
#
# Revision: 3
# Processed by: cddbd v1.5.1PL0 Copyright (c) Steve Scherf et al.
# Submitted via: CDex 1.30Release
# Normalized: r1:DSETVAR2,TDELIM( - );r2:TSWAP
#
DISCID=c311180b
DTITLE=Various Artist - Motiv8tion
DYEAR=1900
DGENRE=Blues
TTITLE0=Mozaic - Nothing in the world
TTITLE1=Pet Shop Boys - A red letter day
TTITLE2=Motiv8 - Dreaming
TTITLE3=Dana Dawson - Show me
TTITLE4=Mary Kiani - I imagine
TTITLE5=Shawn Christopher - Make my love
TTITLE6=Saint Etienne - Hug my soul
TTITLE7=Sean Maquire - A good day
TTITLE8=Kelly Llorena - A brighter day
TTITLE9=Let Loose - Everybody say everybody
TTITLE10=Johnna - Pride
EXTD=ID3G:   0
EXTT0=
EXTT1=
EXTT2=
EXTT3=
EXTT4=
EXTT5=
EXTT6=
EXTT7=
EXTT8=
EXTT9=
EXTT10=
PLAYORDER=
